<svg id="Layer_1" data-name="Layer 1" xmlns="http://www.w3.org/2000/svg" viewBox="0 0 226.41 79.69"><defs><style>.cls-1{fill:#687ded;}.cls-2{fill:#fff;}</style></defs><title>logo-light</title><path class="cls-1" d="M14.61,71.62a19.29,19.29,0,0,1-7.24-8.15A28,28,0,0,1,4.72,50.85a51.17,51.17,0,0,1,5.38-23.3A42.15,42.15,0,0,1,26,10.34q10.5-6.49,25.24-6.49a63,63,0,0,1,8.15.57,45.18,45.18,0,0,1,7.9,1.74A3.06,3.06,0,0,1,69.6,9.47,6.2,6.2,0,0,1,68,13.53a4.83,4.83,0,0,1-3.77,1.9,4.75,4.75,0,0,1-1-.08c-2.87-.66-5.33-1.15-7.37-1.45a44.3,44.3,0,0,0-6.45-.46q-10.51,0-17.88,5.09A31.19,31.19,0,0,0,20.52,32a44.81,44.81,0,0,0-3.64,18q0,7,2.78,10.88a8.52,8.52,0,0,0,7.24,3.85,11.72,11.72,0,0,0,8.85-4.13q3.81-4.14,7-13.41a197.92,197.92,0,0,0,6.21-25.16,4.37,4.37,0,0,1,2-3.14,8.16,8.16,0,0,1,4-.83q5.87,0,5.87,3.81a7.25,7.25,0,0,1-.24,1.65q-2.16,8-3.94,17.75a90,90,0,0,0-1.77,14.77q0,4.47,1.32,6.5a4.5,4.5,0,0,0,4,2,8.32,8.32,0,0,0,5-1.78,40.27,40.27,0,0,0,6-6.08,2.9,2.9,0,0,1,2.24-1.16,1.91,1.91,0,0,1,1.69,1,5.06,5.06,0,0,1,.63,2.73,7.8,7.8,0,0,1-1.58,5.13,37.42,37.42,0,0,1-7.94,7.45,16.94,16.94,0,0,1-9.52,2.57,13.06,13.06,0,0,1-9.35-3.36Q43.86,67.73,43,61.61q-6.12,12.83-18,12.83A19.27,19.27,0,0,1,14.61,71.62Z"/><path class="cls-1" d="M70.55,71.13c-.86-2.21-1.28-5.74-1.28-10.6a67.46,67.46,0,0,1,3.06-20.44,6.27,6.27,0,0,1,2.44-3.52,8.66,8.66,0,0,1,4.76-1.11,4.78,4.78,0,0,1,2.32.41,1.71,1.71,0,0,1,.66,1.57,32.06,32.06,0,0,1-1.24,6q-.84,3.32-1.33,5.79a59.93,59.93,0,0,0-.82,6.13,47.05,47.05,0,0,1,6.12-11.59,24,24,0,0,1,6.66-6.37,12.1,12.1,0,0,1,6-1.9q5.38,0,5.38,5.38a66.93,66.93,0,0,1-1.82,11.67A57,57,0,0,0,99.89,62c0,2.21.8,3.31,2.4,3.31,1.1,0,2.41-.67,3.93-2a67.62,67.62,0,0,0,6.08-6.57,2.88,2.88,0,0,1,2.23-1.16,1.91,1.91,0,0,1,1.7,1,5.16,5.16,0,0,1,.62,2.73,7.58,7.58,0,0,1-1.57,5.13,36.07,36.07,0,0,1-7.66,7.2,16,16,0,0,1-9.31,2.82q-4.22,0-6.37-2.45t-2.15-7.07A52.08,52.08,0,0,1,91,56.64,42.51,42.51,0,0,0,92,49.44c0-.88-.31-1.32-.92-1.32s-1.72.92-3,2.77a44.74,44.74,0,0,0-4,7.33,57.27,57.27,0,0,0-3.27,9.59c-.6,2.6-1.31,4.35-2.11,5.26A4.75,4.75,0,0,1,75,74.44C72.88,74.44,71.4,73.33,70.55,71.13Z"/><path class="cls-2" d="M151.48,56.56a5.06,5.06,0,0,1,.63,2.73,8.23,8.23,0,0,1-1.58,5.13,27.66,27.66,0,0,1-9.64,8,28.38,28.38,0,0,1-12.95,2.89,25.62,25.62,0,0,1-9.76-1.69,14.6,14.6,0,0,1-6.34-4.64,10.74,10.74,0,0,1-2.19-6.58A13.06,13.06,0,0,1,114,52.67a47.64,47.64,0,0,1,12.58-8.11L113,44.89a3,3,0,0,1-2.77-1.28,5.6,5.6,0,0,1-1-3.27,6.58,6.58,0,0,1,1-3.52,3,3,0,0,1,2.61-1.53c2.54,0,5.93.2,10.18.58l4.84.33c2.34.17,4.32.25,5.92.25a14.24,14.24,0,0,0,3.14-.66c.28-.06.81-.19,1.61-.42a8.38,8.38,0,0,1,2-.33,2.66,2.66,0,0,1,2.2,1.16,6,6,0,0,1,.86,3.56,6.26,6.26,0,0,1-1.24,4.14,10.44,10.44,0,0,1-3.89,2.65A61.69,61.69,0,0,0,126,53.46q-5,3.67-5,7.32a4.49,4.49,0,0,0,2.15,3.81c1.44,1,3.56,1.49,6.38,1.49A21.25,21.25,0,0,0,139,63.76a25.18,25.18,0,0,0,8.56-7,2.9,2.9,0,0,1,2.24-1.16A1.91,1.91,0,0,1,151.48,56.56Z"/><path class="cls-2" d="M146.48,70.71A14.88,14.88,0,0,1,143.42,61a26.89,26.89,0,0,1,3.06-12.54,26.12,26.12,0,0,1,8.15-9.52,18.37,18.37,0,0,1,10.8-3.6,3.21,3.21,0,0,1,2.44.71,5.87,5.87,0,0,1,1,2.52,19.59,19.59,0,0,1,3.65-.33q4,0,4,2.89a61.59,61.59,0,0,1-1.24,8.28q-1.91,9.53-1.9,13.24a3,3,0,0,0,.62,2,2,2,0,0,0,1.61.74c1.05,0,2.32-.67,3.81-2a71.05,71.05,0,0,0,6-6.57,2.88,2.88,0,0,1,2.23-1.16,1.91,1.91,0,0,1,1.7,1,5.16,5.16,0,0,1,.62,2.73,7.58,7.58,0,0,1-1.57,5.13,42,42,0,0,1-7.2,7.12,12.31,12.31,0,0,1-7.37,2.9,7.71,7.71,0,0,1-5-1.87,11.26,11.26,0,0,1-3.44-5.09q-4.31,7-10.84,7A10.07,10.07,0,0,1,146.48,70.71Zm14.65-6.78a14.09,14.09,0,0,0,2.4-5.71L166.59,43a10,10,0,0,0-6.42,2.61,17.51,17.51,0,0,0-4.67,6.66A22.39,22.39,0,0,0,153.76,61a5.88,5.88,0,0,0,1,3.81,3.55,3.55,0,0,0,2.86,1.24C158.86,66.08,160,65.36,161.13,63.93Z"/><path class="cls-2" d="M219.92,48.08a4.3,4.3,0,0,1,1.28,3.18,6.28,6.28,0,0,1-.49,2.32A14,14,0,0,1,217,58.71a7.91,7.91,0,0,1-5.29,2.07,5.27,5.27,0,0,1-3.93-1.65,6.14,6.14,0,0,1-1.62-4.47c0-1,.06-2.18.17-3.4a17.18,17.18,0,0,0,.16-1.82,1.43,1.43,0,0,0-.29-1,.89.89,0,0,0-.7-.33c-.77,0-1.82.92-3.14,2.77a40.59,40.59,0,0,0-4,7.33,59,59,0,0,0-3.22,9.59q-.91,4-2.07,5.3a4.85,4.85,0,0,1-3.81,1.33c-2.1,0-3.57-1.11-4.43-3.31s-1.28-5.74-1.28-10.6a67.46,67.46,0,0,1,3.06-20.44,6.27,6.27,0,0,1,2.44-3.52,8.66,8.66,0,0,1,4.76-1.11,4.73,4.73,0,0,1,2.32.41,1.71,1.71,0,0,1,.66,1.57,31.2,31.2,0,0,1-1.24,6q-.83,3.32-1.32,5.79a59.62,59.62,0,0,0-.83,6.13,47.05,47.05,0,0,1,6.12-11.59,24.3,24.3,0,0,1,6.62-6.37,11.8,11.8,0,0,1,5.88-1.9,4.79,4.79,0,0,1,3.68,1.36,5.64,5.64,0,0,1,1.28,4,35.79,35.79,0,0,1-.91,6h.75A4.2,4.2,0,0,1,219.92,48.08Z"/></svg>